<?xml version="1.0"?>
<svg xmlns="http://www.w3.org/2000/svg" xmlns:xlink="http://www.w3.org/1999/xlink" xmlns:svgjs="http://svgjs.com/svgjs" version="1.1" width="512" height="512" x="0" y="0" viewBox="0 0 128 128" style="enable-background:new 0 0 512 512" xml:space="preserve" class=""><g><path xmlns="http://www.w3.org/2000/svg" d="M126.25,114.5h-7v-8.362a1.749,1.749,0,0,0-1.75-1.75H106.875V76.6h2.141a14.017,14.017,0,0,0,14-14,1.75,1.75,0,0,0-1.75-1.75,26.275,26.275,0,0,1-20.4-9.838V42.5h.145a14.016,14.016,0,0,0,14-14,1.749,1.749,0,0,0-1.75-1.75,26.275,26.275,0,0,1-20.4-9.837V1.747A1.749,1.749,0,0,0,91.109,0H82.375A1.749,1.749,0,0,0,80.656,1.42L77.925,15.782H50.075L47.344,1.42A1.75,1.75,0,0,0,45.625,0H36.891a1.749,1.749,0,0,0-1.75,1.75V16.913a26.275,26.275,0,0,1-20.4,9.837,1.749,1.749,0,0,0-1.75,1.75,14.015,14.015,0,0,0,14,14h.145v8.508a26.275,26.275,0,0,1-20.4,9.838,1.75,1.75,0,0,0-1.75,1.75,14.017,14.017,0,0,0,14,14h2.141v27.789H10.5a1.749,1.749,0,0,0-1.75,1.75V114.5h-7A1.749,1.749,0,0,0,0,116.247v10A1.749,1.749,0,0,0,1.75,128h124.5a1.749,1.749,0,0,0,1.75-1.75v-10A1.749,1.749,0,0,0,126.25,114.5ZM83.823,3.5h5.536V15.782H81.487Zm-45.182,0h5.536l2.336,12.285H38.641ZM16.626,30.189A29.842,29.842,0,0,0,37.739,19.282H90.261a29.84,29.84,0,0,0,21.113,10.907A10.516,10.516,0,0,1,101.01,39H26.99A10.515,10.515,0,0,1,16.626,30.189ZM97.365,42.5v7.378H30.635V42.5ZM8.62,64.284A29.837,29.837,0,0,0,29.733,53.378H98.267A29.837,29.837,0,0,0,119.38,64.284,10.518,10.518,0,0,1,109.016,73.1H18.984A10.517,10.517,0,0,1,8.62,64.284ZM24.625,76.6h78.75v27.789h-5V92a6.758,6.758,0,0,0-6.75-6.75h-4.75A6.758,6.758,0,0,0,80.125,92v12.385h-7V92a6.758,6.758,0,0,0-6.75-6.75h-4.75A6.758,6.758,0,0,0,54.875,92v12.385h-7V92a6.758,6.758,0,0,0-6.75-6.75h-4.75A6.758,6.758,0,0,0,29.625,92v12.385h-5Zm70.25,27.789H83.625V92a3.254,3.254,0,0,1,3.25-3.25h4.75A3.254,3.254,0,0,1,94.875,92Zm-25.25,0H58.375V92a3.254,3.254,0,0,1,3.25-3.25h4.75A3.254,3.254,0,0,1,69.625,92Zm-25.25,0H33.125V92a3.254,3.254,0,0,1,3.25-3.25h4.75A3.254,3.254,0,0,1,44.375,92Zm-32.125,3.5h103.5v6.5H12.25ZM124.5,124.5H3.5V118h121Z" fill="#ffffff" data-original="#000000" style=""/></g></svg>
