<svg xmlns="http://www.w3.org/2000/svg" viewBox="0 0 28.92 28.52"><defs><style>.cls-1{fill:#fff;fill-rule:evenodd;}</style></defs><g id="Layer_2" data-name="Layer 2"><g id="_18" data-name="18"><path class="cls-1" d="M15.44,3.67c1,.23,1.57.12,1.34-.25a14.36,14.36,0,0,0-1.22-2.07,5.62,5.62,0,0,0-1-1.34c-.25-.12-1,.74-1.34,1.34s-.73,1.22-.85,1.58.12,1,1.09.74h1.95Zm1.7,2.53a9.22,9.22,0,0,0-2.67-.48,10.07,10.07,0,0,0-2.8.48,9,9,0,0,0-6.43,8.73A9.23,9.23,0,1,0,17.14,6.2Zm5.09.6c.62.86,1.22,1.22,1.22.74s.37-1.7.49-2.42a7.46,7.46,0,0,0,0-1.59c0-.23-1.22-.11-1.82.14s-1.46.6-1.71.71-.48.74.37,1.22l.74.6.71.6Zm3.29,6.93c-.13,1,.12,1.57.35,1.34s1.47-1.22,1.95-1.59a7,7,0,0,0,1.09-1.22c.13-.23-.85-.85-1.57-1.08s-1.33-.48-1.7-.6-.85.37-.49,1.22l.12,1,.25,1ZM23.57,21c-.72.72-1,1.34-.6,1.34h2.55a5,5,0,0,0,1.57-.25c.25-.12-.12-1.22-.48-1.71a11.22,11.22,0,0,1-1-1.68c-.25-.37-.85-.37-1.22.6l-.48.85-.37.85Zm-6.31,4.38c-1,.11-1.45.34-1.22.6A17.09,17.09,0,0,0,18,27.55a5.68,5.68,0,0,0,1.36,1c.23,0,.6-1.08.72-1.68s.25-1.59.36-2-.48-.71-1.33-.23l-.85.37-1,.37Zm-7.53-.74c-.85-.48-1.47-.6-1.33-.25s.23,1.7.36,2.44a7,7,0,0,0,.49,1.57c.23.11,1.2-.37,1.7-.86a16.59,16.59,0,0,0,1.45-1.22c.23-.23.12-.83-.85-.94L10.7,25l-1-.37ZM4.39,19.31c-.25-1-.74-1.45-.85-1.1s-.85,1.58-1.22,2.18a3.29,3.29,0,0,0-.6,1.47c0,.24,1.08.49,1.68.49h2c.37,0,.71-.62,0-1.34l-.49-.85-.48-.85ZM3.77,11.8c.37-.85.37-1.59,0-1.47l-2.3.85A7.39,7.39,0,0,0,0,11.91c-.14.24.6,1.09,1.08,1.57s1.1,1,1.45,1.22.85,0,.85-1l.25-1,.12-1ZM8,5.6c1-.48,1.33-1,1-1.1s-1.71-.6-2.31-.83A5.35,5.35,0,0,0,5.11,3.3c-.24.12-.24,1.2-.12,1.82a19.5,19.5,0,0,0,.37,1.94c0,.36.6.6,1.33-.26l.6-.6L8,5.6Z"/></g></g></svg>