<?xml version="1.0"?>
<svg xmlns="http://www.w3.org/2000/svg" xmlns:xlink="http://www.w3.org/1999/xlink" xmlns:svgjs="http://svgjs.com/svgjs" version="1.1" width="512" height="512" x="0" y="0" viewBox="0 0 512 512" style="enable-background:new 0 0 512 512" xml:space="preserve" class=""><g><g xmlns="http://www.w3.org/2000/svg"><path d="m508.774 10.236c-3.733-5.932-11.442-10.645-18.686-9.707l-78.714 10.336c-4.165.548-7.099 4.367-6.552 8.533.547 4.165 4.364 7.095 8.533 6.552l78.124-10.259c3.974.254 6.451 4.55 4.729 8.141l-23.009 48.034h-434.601l-23.011-48.038c-1.722-3.59.762-7.883 4.731-8.136l157.305 20.655c51.941 6.811 104.611 6.811 156.552 0l43.145-5.665c4.165-.547 7.099-4.367 6.552-8.533-.547-4.165-4.365-7.092-8.533-6.552l-43.144 5.665c-50.627 6.639-101.967 6.638-152.592 0l-157.894-20.733c-15.704-2.034-26.154 16.721-19.84 29.877l25.078 52.354c1.265 2.641 3.932 4.321 6.86 4.321h54.79v31.853c0 4.202 3.405 7.607 7.607 7.607h5.804v24.246h-45.186c-4.202 0-7.607 3.405-7.607 7.607v39.39c0 4.202 3.405 7.607 7.607 7.607h30.59v251.756h-6.757c-4.202 0-7.607 3.405-7.607 7.607v39.262c0 4.202 3.405 7.607 7.607 7.607h102.254c4.202 0 7.607-3.405 7.607-7.607v-39.262c0-4.202-3.405-7.607-7.607-7.607h-6.757v-251.756h159.493v251.756h-6.758c-4.202 0-7.607 3.405-7.607 7.607v39.262c0 4.202 3.405 7.607 7.607 7.607h102.255c4.202 0 7.607-3.405 7.607-7.607v-39.262c0-4.202-3.405-7.607-7.607-7.607h-6.757v-53.473c0-4.202-3.405-7.607-7.607-7.607s-7.607 3.405-7.607 7.607v53.473h-58.311v-251.756h58.311v164.811c0 4.202 3.405 7.607 7.607 7.607s7.607-3.405 7.607-7.607v-164.811h30.529c4.202 0 7.607-3.405 7.607-7.607v-39.39c0-4.202-3.405-7.607-7.607-7.607h-45.125v-24.246h6.244c4.202 0 7.607-3.405 7.607-7.607v-31.853h54.35c2.928 0 5.595-1.68 6.86-4.321l25.076-52.35c3.128-6.516 2.697-14.057-1.152-20.174zm-85.239 462.125v24.048h-87.041v-24.048zm-124.011-321.574v-24.246h50.717v24.246zm36.866-39.46h-36.866v-24.246h36.866zm-52.08-24.246v63.707h-56.823v-63.707zm-122.754 63.706v-24.246h50.717v24.246zm50.717-39.46h-36.426v-24.246h36.426zm-51.64-24.246v24.246h-56.822v-24.246zm-43.41 39.46h29.12v24.246h-29.12zm58.079 369.868h-87.04v-24.048h87.04zm272.005-306.232h-300.563c-4.202 0-7.607 3.405-7.607 7.607s3.405 7.607 7.607 7.607h14.194v251.756h-58.311v-251.756h6.989c4.202 0 7.607-3.405 7.607-7.607s-3.405-7.607-7.607-7.607h-45.187v-24.176h382.877v24.176zm-52.732-39.39h-29.12v-24.246h29.12zm13.851-39.46h-56.822v-24.246h56.822z" fill="#ffffff" data-original="#000000" style="" class=""/><path d="m256.406 136.383c4.202 0 7.607-3.405 7.607-7.607v-19.372c0-4.202-3.405-7.607-7.607-7.607s-7.607 3.405-7.607 7.607v19.372c0 4.201 3.405 7.607 7.607 7.607z" fill="#ffffff" data-original="#000000" style="" class=""/></g></g></svg>
